<svg width="1207" height="244" xmlns="http://www.w3.org/2000/svg" xmlns:xlink="http://www.w3.org/1999/xlink" xml:space="preserve" overflow="hidden"><g transform="translate(-1597 -1116)"><path d="M116.786 241.142 177.79 224.261 55.785 224.261ZM59.9744 196.597C58.2987 194.263 59.4115 106.792 59.4115 103.06 70.7078 103.572 89.9885 103.132 98.7739 106.86 116.898 114.499 132.724 124.546 133.356 153.927 133.7 171.129 119.896 187.72 106.2 193.611 95.4225 198.213 61.2627 198.425 59.9744 196.597M208.898 21.2119C209.458 7.18606 227.86 6.67761 230.652 6.60266 234.276 6.5277 233.994 0.174769 231.205 0.174769 228.417 0.174769 153.153 0.0998164 150.33 0.174769 147.681 0.246478 147.263 6.5277 150.886 6.60266 154.235 6.67761 173.197 7.18606 174.319 21.2119 174.907 28.8188 175.429 128.927 175.429 200.101L128.019 200.101C152.94 190.312 165.246 173.366 164.83 151.586 164.208 121.844 147.785 107.082 138.061 101.896 120.075 92.3853 85.624 89.0715 59.9744 90.7846 59.9744 59.6506 59.6932 29.4055 59.9744 21.7982 60.5308 6.60266 80.0495 7.14858 86.1869 6.60266 89.5665 6.30933 89.5322 0.174769 86.1869 0.174769L1.96274 0.174769C-0.269714 0.174769-0.826113 6.60266 2.51914 6.60266 5.86764 6.60266 25.3893 6.01277 26.5053 21.2119 27.1682 30.6069 30.304 176.137 29.8477 189.582 29.2974 205.958 6.42729 205.374 3.08168 205.958-0.269714 206.535 0.852832 212.161 3.08168 212.161 3.08168 212.161 228.392 212.167 231.765 212.167 235.148 212.167 234.554 206.685 232.325 206.098 230.089 205.521 207.222 205.521 207.222 190.905 207.222 179.204 208.654 27.0621 208.898 21.2119" fill-rule="evenodd" transform="matrix(1 0 0 -1 2074 1358)"/><path d="M29.4908 45.7952C29.4908 54.2306 25.0003 57.7218 17.3773 57.7218L11.3599 57.7218 11.3599 33.091 17.3773 33.091C24.8321 33.091 29.4908 36.0015 29.4908 45.7952M41.1795 45.7952C41.1795 30.3771 31.4395 23.4943 18.2214 23.4943L11.3599 23.4943 11.3599 0.125148 0.179223 0.125148 0.179223 67.1252 17.4627 67.1252C32.2011 67.1252 41.1795 60.242 41.1795 45.7952" fill-rule="evenodd" transform="matrix(1 0 0 -1 2341 1245)"/><path d="M11.2649 57.6233 11.2649 38.9106 29.9035 38.9106 29.9035 29.4073 11.2649 29.4073 11.2649 9.72657 34.1842 9.72657 34.1842 0.126591 0.184159 0.126591 0.184159 67.1266 33.8478 67.1266 32.6746 57.6233Z" fill-rule="evenodd" transform="matrix(1 0 0 -1 2397 1245)"/><path d="M18.2663 36.193C25.1918 36.193 29.0773 39.394 29.0773 47.4424 29.0773 54.7129 25.445 57.8172 17.339 57.8172L11.3404 57.8172 11.3404 36.193ZM11.3404 26.9828 11.3404 0.124072 0.194019 0.124072 0.194019 67.1241 17.5922 67.1241C32.877 67.1241 40.7298 60.725 40.7298 47.4424 40.7298 38.326 36.8476 32.8979 28.9063 29.3095L44.1944 0.124072 31.3584 0.124072 18.437 26.9828Z" fill-rule="evenodd" transform="matrix(1 0 0 -1 2447 1245)"/><path d="M0.0329223 66.9149 11.0333 66.9149 11.0333-0.0854762 0.0329223-0.0854762Z" fill-rule="evenodd" transform="matrix(1 0 0 -1 2505 1245)"/><path d="M46.551 0.119738 45.0656 28.1421C44.5674 38.0328 44.1556 48.4071 44.3197 55.4839L33.9117 7.39311 23.5877 7.39311 12.5142 55.5805C12.8455 46.5645 12.6815 37.3518 12.1864 27.7547L10.7811 0.119738 0.206223 0.119738 4.74956 67.1198 18.7938 67.1198 28.957 20.191 38.5387 67.1198 52.7469 67.1198 57.2063 0.119738Z" fill-rule="evenodd" transform="matrix(1 0 0 -1 2533 1245)"/><path d="M11.2976 57.6233 11.2976 38.9106 29.9362 38.9106 29.9362 29.4073 11.2976 29.4073 11.2976 9.72657 34.2169 9.72657 34.2169 0.126591 0.21685 0.126591 0.21685 67.1266 33.8805 67.1266 32.7073 57.6233Z" fill-rule="evenodd" transform="matrix(1 0 0 -1 2608 1245)"/><path d="M26.3378 56.9456 26.3378 0.12623 15.446 0.12623 15.446 56.9456 0.219975 56.9456 0.219975 67.1263 42.2203 67.1263 41.0761 56.9456Z" fill-rule="evenodd" transform="matrix(1 0 0 -1 2653 1245)"/><path d="M11.3132 57.6233 11.3132 38.9106 29.9518 38.9106 29.9518 29.4073 11.3132 29.4073 11.3132 9.72657 34.2325 9.72657 34.2325 0.126591 0.232469 0.126591 0.232469 67.1266 33.8961 67.1266 32.7229 57.6233Z" fill-rule="evenodd" transform="matrix(1 0 0 -1 2709 1245)"/><path d="M18.3149 36.193C25.2404 36.193 29.1259 39.394 29.1259 47.4424 29.1259 54.7129 25.4936 57.8172 17.3879 57.8172L11.389 57.8172 11.389 36.193ZM11.389 26.9828 11.389 0.124072 0.242615 0.124072 0.242615 67.1241 17.6408 67.1241C32.9256 67.1241 40.7817 60.725 40.7817 47.4424 40.7817 38.326 36.8962 32.8979 28.9549 29.3095L44.243 0.124072 31.407 0.124072 18.4855 26.9828Z" fill-rule="evenodd" transform="matrix(1 0 0 -1 2759 1245)"/><path d="M0.0292788 66.9391 12.0297 66.9391 12.0297-0.0613121 0.0292788-0.0613121Z" fill-rule="evenodd" transform="matrix(1 0 0 -1 2341 1335)"/><path d="M28.7654 0.133804 8.78464 54.3359C9.37519 48.4208 10.3039 39.8891 10.3039 27.4785L10.3039 0.133804 0.183842 0.133804 0.183842 67.1338 14.2645 67.1338 34.5834 12.838C34.0782 16.5199 33.0641 26.2165 33.0641 35.7166L33.0641 67.1338 43.1842 67.1338 43.1842 0.133804Z" fill-rule="evenodd" transform="matrix(1 0 0 -1 2377 1335)"/><path d="M41.5113 61.8855 35.8744 54.5122C31.8329 58.5899 27.7947 60.3345 22.9967 60.3345 17.7792 60.3345 13.9929 57.6174 13.9929 52.3733 13.9929 47.5202 16.2662 45.3817 25.9442 41.8886 36.1267 38.199 43.1947 33.346 43.1947 20.7224 43.1947 8.68669 35.0327 0.140836 21.1461 0.140836 11.8904 0.140836 4.98954 3.93077 0.194776 9.36523L6.08356 16.9389C10.1218 12.5705 14.8346 10.047 20.8938 10.047 27.1201 10.047 31.5806 13.5365 31.5806 20.0438 31.5806 25.6755 29.1407 28.199 20.0521 31.4042 7.85184 35.7723 2.54956 41.4039 2.54956 51.5979 2.54956 62.7612 10.8816 70.1406 22.325 70.1406 30.8241 70.1406 36.461 67.2264 41.5113 61.8855" fill-rule="evenodd" transform="matrix(1 0 0 -1 2439 1337)"/><path d="M26.9406 56.9564 26.9406 0.140296 15.7924 0.140296 15.7924 56.9564 0.200914 56.9564 0.200914 67.1403 43.2012 67.1403 42.0299 56.9564Z" fill-rule="evenodd" transform="matrix(1 0 0 -1 2495 1335)"/><path d="M0.0382577 66.9391 12.0387 66.9391 12.0387-0.0613121 0.0382577-0.0613121Z" fill-rule="evenodd" transform="matrix(1 0 0 -1 2556 1335)"/><path d="M26.9548 56.9564 26.9548 0.140296 15.8037 0.140296 15.8037 56.9564 0.215058 56.9564 0.215058 67.1403 43.2154 67.1403 42.044 56.9564Z" fill-rule="evenodd" transform="matrix(1 0 0 -1 2586 1335)"/><path d="M21.639 0.134868C7.41918 0.134868 0.223321 9.8112 0.223321 23.6866L0.223321 69.1346 11.2649 69.1346 11.2649 24.3729C11.2649 14.8918 14.5274 10.1984 21.639 10.1984 28.8348 10.1984 32.0974 14.8918 32.0974 24.3729L32.0974 69.1346 43.2236 69.1346 43.2236 23.6866C43.2236 10.1038 35.777 0.134868 21.639 0.134868" fill-rule="evenodd" transform="matrix(1 0 0 -1 2647 1337)"/><path d="M26.3463 56.9564 26.3463 0.140296 15.4574 0.140296 15.4574 56.9564 0.228476 56.9564 0.228476 67.1403 42.2288 67.1403 41.0846 56.9564Z" fill-rule="evenodd" transform="matrix(1 0 0 -1 2708 1335)"/><path d="M10.9893 57.6369 10.9893 38.9262 29.08 38.9262 29.08 29.4195 10.9893 29.4195 10.9893 9.7375 33.2348 9.7375 33.2348 0.140302 0.234445 0.140302 0.234445 67.1407 32.908 67.1407 31.7696 57.6369Z" fill-rule="evenodd" transform="matrix(1 0 0 -1 2769 1335)"/><path d="M0.149682 212.143 0.149682 0.14232" stroke="#000000" stroke-width="3.1228" stroke-miterlimit="8" fill="none" fill-rule="evenodd" transform="matrix(1 0 0 -1 1982.5 1358.5)"/><path d="M26.0011 13.4078 28.6216 28.4159 97.0807 28.4159 97.0807 51.1125 8.83684 51.1125 0.08041 0.112263C7.73336 6.437 16.5361 10.9492 26.0011 13.4078" fill="#00AEEF" fill-rule="evenodd" transform="matrix(1 0 0 -1 1716 1168)"/><path d="M85.2546 63.3903C80.6054 70.9343 77.3033 76.6311 75.2608 90.139L0.070939 22.3365 0.070939 0.138549 103.071 0.138549 103.071 22.8733 38.7478 22.8733Z" fill="#00AEEF" fill-rule="evenodd" transform="matrix(1 0 0 -1 1607 1335)"/><path d="M77.2156 93.2095C76.8768 93.2934 76.5442 93.3902 76.2054 93.468 74.5677 93.8485 72.8984 94.1445 71.2139 94.394 70.5549 94.4908 69.9085 94.6154 69.2465 94.6931 66.9091 94.9613 64.5405 95.1298 62.1307 95.1298 60.1857 95.1298 58.2686 95.0143 56.3703 94.8397 55.6834 94.7774 55.0058 94.6744 54.3217 94.5873 53.142 94.4375 51.9687 94.2662 50.8107 94.0541 49.989 93.9015 49.1701 93.7301 48.3607 93.5461 47.3661 93.3215 46.387 93.063 45.4145 92.7915 44.5707 92.5546 43.7235 92.3271 42.8953 92.0589 41.2575 91.5261 39.6354 90.9587 38.057 90.2945 38.0165 90.279 37.9755 90.2574 37.9349 90.2387 36.1936 89.5028 34.4993 88.6859 32.8428 87.8006 32.5699 87.6541 32.3061 87.4921 32.0333 87.3395 30.634 86.5661 29.2658 85.7431 27.939 84.8672 27.6408 84.6707 27.3458 84.4712 27.0542 84.2718 25.6548 83.3116 24.2867 82.3046 22.9721 81.2386 22.8529 81.1418 22.7308 81.0485 22.6116 80.9517 21.4065 79.9573 20.2677 78.8942 19.1416 77.8156 18.5829 77.2824 18.0372 76.7337 17.4973 76.179 16.7129 75.3686 15.9538 74.533 15.2132 73.6819 14.6421 73.0274 14.0871 72.357 13.5443 71.6806 12.8446 70.7982 12.1667 69.8974 11.5112 68.9779 11.0877 68.3825 10.6641 67.7805 10.2594 67.1696 9.53147 66.0661 8.84413 64.9375 8.18868 63.7872 7.91548 63.3134 7.63938 62.8397 7.37923 62.3565 6.63246 60.9629 5.94222 59.5351 5.30199 58.0792 5.17662 57.7987 5.04183 57.5244 4.92263 57.2439 1.82578 49.9399 0.0688429 41.9436 0.0688429 33.5297 0.0688429 21.2254 3.73346 9.75931 10.0116 0.129966L28.7734 15.0436C25.89 20.1468 24.1675 25.973 23.945 32.1768L23.9638 33.5297C23.9638 35.6653 24.1863 37.7444 24.5283 39.7864 24.607 40.2415 24.6476 40.7091 24.7418 41.1581 24.9236 42.0495 25.1747 42.9164 25.4226 43.7858 25.5168 44.1163 25.5795 44.4594 25.6831 44.7867 27.5404 50.7161 30.8286 56.0249 35.1392 60.3145 35.1425 60.3145 35.1425 60.3145 35.1425 60.3145 35.1551 60.3271 35.1675 60.3394 35.1801 60.352 36.0179 61.1843 36.8932 61.9731 37.8063 62.7241 37.8092 62.7273 37.8092 62.7273 37.8125 62.7306 37.8407 62.7522 37.8657 62.7774 37.894 62.799 37.894 62.8022 37.894 62.8022 37.8973 62.8022 38.7821 63.5284 39.7042 64.2081 40.655 64.8536L40.655 64.8536C41.3985 65.3583 42.1735 65.8105 42.9514 66.2627 43.1177 66.3592 43.2746 66.465 43.4409 66.5586 43.4442 66.5586 43.4442 66.5586 43.4442 66.5586 43.733 66.7206 44.0246 66.8859 44.3196 67.0418L44.3196 67.0418C44.3196 67.0418 44.3196 67.0418 44.3196 67.0418 45.5526 67.6902 46.8294 68.2608 48.1346 68.7752 48.4295 68.8904 48.7277 68.9902 49.0255 69.0993 50.0516 69.4733 51.0995 69.807 52.1662 70.094 52.568 70.2031 52.9728 70.3089 53.3804 70.4054 54.4065 70.6455 55.4511 70.8356 56.5055 70.9915 56.9131 71.0541 57.3149 71.1287 57.7258 71.1787 59.1755 71.344 60.6375 71.4498 62.1307 71.4498 68.503 71.4498 74.6336 69.91 80.099 67.0043 83.3777 65.2651 86.4148 63.0298 89.116 60.3426 90.6283 58.8431 91.9617 57.2159 93.1821 55.5231 93.311 55.3452 93.4491 55.1771 93.5745 54.9992 94.7289 53.3378 95.7206 51.5859 96.5865 49.7776 96.6869 49.5655 96.7901 49.3567 96.8876 49.1418 97.7315 47.2899 98.4217 45.376 98.9522 43.4057 98.9927 43.253 99.0272 43.1032 99.0681 42.9506 99.5199 41.189 99.8776 39.3936 100.069 37.5637 99.1652 58.9303 90.7131 78.3549 77.2156 93.2095" fill="#00AEEF" fill-rule="evenodd" transform="matrix(1 0 0 -1 1597 1266)"/><path d="M46.6695 60.448C46.6695 89.2367 26.7975 113.406 0.0762939 120.127 13.4821 105.273 21.8773 85.8482 22.7744 64.4816 22.9148 63.1474 22.999 61.8038 22.999 60.448 22.999 30.7644 44.0957 5.92182 72.0761 0.126724 58.7481 14.2921 49.817 32.6192 47.4051 52.9569 46.9189 55.3978 46.6695 57.9042 46.6695 60.448" fill-rule="evenodd" transform="matrix(1 0 0 -1 1674 1293)"/><path d="M40.0502 123.134C30.4471 123.134 21.205 120.999 12.8512 116.953 8.28348 114.74 4.02971 111.886 0.0833858 108.568L11.7114 87.0438 12.6156 87.9683C17.1521 92.6116 22.6614 95.9543 28.6985 97.806 29.9072 98.1762 31.1377 98.4875 32.3842 98.7365 34.8767 99.2376 37.4413 99.4928 40.0502 99.4928L40.0502 99.4928C45.3148 99.4928 50.3346 98.4314 54.9023 96.5114 58.3273 95.0733 61.4981 93.1533 64.3267 90.8375 65.2715 90.0658 66.1757 89.2471 67.0422 88.3913 68.7687 86.6765 70.3352 84.7999 71.7071 82.7861 73.0823 80.7726 74.266 78.619 75.2329 76.3564 77.1696 71.828 78.2402 66.8515 78.2402 61.6352 78.2402 60.328 78.171 59.0394 78.0423 57.7696 77.65 53.954 76.6863 50.3065 75.2329 46.9111 74.5607 45.3361 73.7479 43.8391 72.872 42.3795 72.0211 40.9573 71.089 39.594 70.0622 38.2993 69.8016 37.9726 69.5536 37.6394 69.2838 37.3221 67.3312 35.0189 65.0928 32.9712 62.6471 31.1846 60.2517 29.4324 57.6744 27.9199 54.9023 26.7561 50.3346 24.8357 45.3148 23.7743 40.0502 23.7743L40.0502 23.7743C38.7755 23.7743 37.5106 23.8365 36.258 23.958 33.7528 24.2006 31.298 24.6862 28.9244 25.3989 26.5511 26.1117 24.2595 27.0516 22.0711 28.2125 18.7908 29.9521 15.7519 32.1805 13.0488 34.8636 11.8121 36.0867 10.71 37.4029 9.67094 38.7536 9.43855 39.0555 9.20942 39.3575 8.98972 39.6655 7.9851 41.0536 7.05263 42.4884 6.25539 43.9886 6.25213 43.9919 6.25213 43.9947 6.24923 43.998 5.43603 45.5291 4.76423 47.1228 4.17074 48.7441 4.08301 48.99 3.99201 49.2297 3.90717 49.4788 3.38619 51.0067 2.92757 52.5598 2.60744 54.1534 5.03723 33.849 14.0346 15.5551 27.4582 1.41289 27.4677 1.40965 27.4771 1.40642 27.4865 1.40642 29.2101 1.05167 30.9746 0.80906 32.7449 0.600595 33.0589 0.563215 33.3634 0.488455 33.6774 0.457185 35.7743 0.245485 37.9 0.133705 40.0502 0.133705 74.2565 0.133705 102.083 27.724 102.083 61.6352 102.083 95.5434 74.2565 123.134 40.0502 123.134" fill="#00AEEF" fill-rule="evenodd" transform="matrix(1 0 0 -1 1719 1294)"/><path d="M8.97506 10.5341 0.0804566 24.1292 5.22895 24.1292 11.1806 14.0279 17.2007 24.1292 22.0808 24.1292 13.1862 10.5341 13.1862 0.128763 8.97506 0.128763Z" fill-rule="evenodd" transform="matrix(1 0 0 -1 1736 1246)"/><path d="M0.0829593 24.1307 15.4939 24.1307 15.4939 20.4024 4.22419 20.4024 4.22419 14.2986 14.8983 14.2986 14.8983 10.7067 4.22419 10.7067 4.22419 3.92801 16.0831 3.92801 16.0831 0.130226 0.0829593 0.130226Z" fill-rule="evenodd" transform="matrix(1 0 0 -1 1769 1246)"/><path d="M15.6452 9.28265 12.0233 19.0452 8.33338 9.28265ZM10.3274 24.1288 13.9521 24.1288 24.0905 0.128763 19.3007 0.128763 17.108 5.62095 6.90466 5.62095 4.77684 0.128763 0.0900343 0.128763Z" fill-rule="evenodd" transform="matrix(1 0 0 -1 1795 1246)"/><path d="M7.38105 13.7908C7.95543 13.7908 8.52946 13.8351 9.10041 13.9269 9.67478 14.0154 10.1894 14.1866 10.6442 14.4368 11.1025 14.6838 11.4773 15.0419 11.7748 15.5043 12.0723 15.9637 12.221 16.5592 12.221 17.2846 12.221 17.9369 12.0839 18.4753 11.8047 18.8905 11.5309 19.3115 11.1829 19.6444 10.7576 19.8913 10.332 20.1416 9.84998 20.3095 9.30893 20.4013 8.76753 20.4902 8.2409 20.5344 7.73213 20.5344L4.1031 20.5344 4.1031 13.7908ZM0.0903479 24.1296 7.92245 24.1296C8.98464 24.1296 10.0138 24.0121 11.0104 23.7747 12.0067 23.5373 12.8933 23.1477 13.6697 22.606 14.443 22.0609 15.0647 21.3483 15.5316 20.4679 15.9988 19.5874 16.2307 18.5134 16.2307 17.2466 16.2307 15.5105 15.7697 14.0915 14.8476 12.9926 13.9253 11.8996 12.6673 11.1585 11.0757 10.7718L17.0905 0.129129 12.2506 0.129129 7.0303 10.297 4.1031 10.297 4.1031 0.129129 0.0903479 0.129129Z" fill-rule="evenodd" transform="matrix(1 0 0 -1 1831 1246)"/><path d="M13.3172 19.5492C12.8902 20.1334 12.2904 20.62 11.5146 21.0124 10.7356 21.4051 9.95353 21.5995 9.1656 21.5995 8.69684 21.5995 8.22843 21.5367 7.75967 21.4145 7.29126 21.2919 6.86455 21.1005 6.48231 20.843 6.10041 20.5856 5.78399 20.2494 5.53927 19.8349 5.29455 19.4205 5.17219 18.9244 5.17219 18.3402 5.17219 17.8035 5.27973 17.3419 5.49447 16.9619 5.70644 16.5819 5.99907 16.2555 6.37201 15.9886 6.74495 15.7185 7.19578 15.4831 7.73003 15.2819 8.26117 15.081 8.84609 14.8801 9.48477 14.6792 10.2072 14.4312 10.9593 14.1516 11.7383 13.8376 12.5141 13.5235 13.2276 13.1091 13.8752 12.5941 14.526 12.0792 15.0571 11.4294 15.4749 10.6443 15.8899 9.85927 16.0956 8.886 16.0956 7.7209 16.0956 6.44629 15.8719 5.32834 15.4242 4.37682 14.9796 3.42567 14.3826 2.63733 13.6364 2.00928 12.8902 1.38448 12.0188 0.910538 11.0189 0.599411 10.019 0.285744 8.96259 0.12873 7.85549 0.12873 6.38683 0.12873 4.95126 0.414474 3.54257 0.985963 2.13974 1.55709 0.987839 2.40199 0.095475 3.52285L2.96972 6.34258C3.52189 5.53866 4.26501 4.90117 5.19012 4.43049 6.11523 3.95945 7.02551 3.72374 7.92098 3.72374 8.38974 3.72374 8.86711 3.78358 9.35965 3.90904 9.84599 4.03161 10.2879 4.23866 10.6846 4.53093 11.0758 4.81958 11.395 5.18401 11.6397 5.62351 11.8844 6.0601 12.0099 6.60004 12.0099 7.25312 12.0099 7.87792 11.8696 8.39936 11.5949 8.81384 11.3143 9.22831 10.9445 9.58622 10.4757 9.88756 10.0073 10.1922 9.45513 10.4529 8.81645 10.6788 8.17466 10.9018 7.50599 11.1371 6.80492 11.3852 6.12143 11.6082 5.43794 11.8751 4.75721 12.1891 4.07682 12.5064 3.46502 12.9176 2.92181 13.4358 2.3786 13.9474 1.93707 14.5849 1.59654 15.3323 1.25634 16.0858 1.08642 17.0185 1.08642 18.1393 1.08642 19.3483 1.32493 20.3876 1.80575 21.2637 2.28313 22.1365 2.90975 22.8617 3.68871 23.4332 4.46768 24.0018 5.35143 24.4286 6.34202 24.7082 7.3271 24.9878 8.33597 25.1288 9.35965 25.1288 10.5085 25.1288 11.6755 24.9152 12.8547 24.4913 14.0365 24.0645 15.063 23.4238 15.9374 22.5731Z" fill-rule="evenodd" transform="matrix(1 0 0 -1 1859 1246)"/></g></svg>